<? xml version = "1.0" encoding = "iso-8859-1" ?>
<!-- Generator: Adobe Illustrator 16.0.0, SVG Export Plug-In . SVG Version: 6.00 Build 0)  --> <!DOCTYPE svg PUBLIC "-//W3C//DTDSVG1.1//EN" "http://www.w3.org/Graphics/SVG/1.1/DTD/svg11.dtd">
<svg height="122.041" viewBox="0 0 787.719 122.041" width="787.719" xmlns="http://www.w3.org/2000/svg">
    <g data-name="Agrupar 19" id="Agrupar_19" transform="translate(13649.562 5118)">
        <path d="M421.409-4.577v-67.1H403.269v67.1Zm34.778,0V-43.857c0-7.365,4.637-13.229,12.548-13.229,8.183,0,11.866,5.455,11.866,12.684V-4.577h18V-43.857c0-7.228,4.637-13.229,12.411-13.229,8.32,0,11.866,5.455,11.866,12.684V-4.577h17.594V-48.084c0-18-11.866-25.5-24.277-25.5-8.865,0-15.957,3-21.276,11.184-3.41-7.228-10.775-11.184-19.912-11.184-7.365,0-15.957,3.546-19.64,10.093v-8.183H438.048v67.1ZM574.3,21.711V-11.124c3.273,4.5,10.093,8.183,19.367,8.183,18.958,0,31.642-15,31.642-35.324,0-19.912-11.32-34.915-30.96-34.915-10.093,0-17.594,4.5-20.594,9.683v-8.183H556.158v93.39Zm33.142-59.839c0,12-7.365,18.958-16.639,18.958s-16.775-7.092-16.775-18.958,7.5-20.412,16.775-20.412S607.439-49.994,607.439-38.128Zm59.6,19.094c-8.865,0-18.685-7.018-18.685-19.566,0-12.684,9.82-18.622,18.685-18.622s17.048,6.41,17.048,19.094S675.9-19.034,667.04-19.034Zm0-54.691c-20.049,0-35.188,14.866-35.188,35.6,0,20.594,15.139,35.6,35.188,35.6s35.188-15,35.188-35.6C702.227-58.859,687.088-73.725,667.04-73.725Zm87.7,1.773a41.3,41.3,0,0,0-4.228-.273c-5.728,0-15,1.637-19.094,10.5v-9.956H713.82v67.1h18.139V-35.264c0-14.457,8.047-18.958,17.321-18.958a27.311,27.311,0,0,1,5.455.546Zm29.918-17.321s-17.808-.338-18,0,0,36.142,0,36.142V-21.9c0,12.957,8.183,20.731,21.276,20.731A26.907,26.907,0,0,0,798.156-2.8v-15a26.324,26.324,0,0,1-5.592.546c-5.183,0-7.91-1.909-7.91-7.774v-28.1h13.5V-69.224h-13.5Z" data-name="Caminho 19" fill="#d02f2f" id="Caminho_19" transform="translate(-13660 -5017.669)"/>
        <path d="M0,0H18.139a0,0,0,0,1,0,0V1.831A18.139,18.139,0,0,1,0,19.97H0a0,0,0,0,1,0,0V0A0,0,0,0,1,0,0Z" data-name="Ret창ngulo 42" id="Ret창ngulo_42" transform="translate(-13256.722 -5015.942)"/>
        <path d="M18.139,0h0a0,0,0,0,1,0,0V19.97a0,0,0,0,1,0,0H0a0,0,0,0,1,0,0V18.139A18.139,18.139,0,0,1,18.139,0Z" data-name="Ret창ngulo 46" fill="#d02f2f" id="Ret창ngulo_46" transform="translate(-13531.502 -5118)"/>
        <path d="M29.122-6.1l-.546-39.8c0-7.365,4.637-13.229,12.548-13.229,8.183,0,11.866,5.455,11.866,12.684V-6.623h18V-45.9c0-7.228,4.637-13.229,12.411-13.229,8.32,0,11.866,5.455,11.866,12.684V-6.623h17.594V-50.13c0-18-11.866-25.5-24.277-25.5-8.865,0-15.957,3-21.276,11.184C63.9-71.679,56.535-75.634,47.4-75.634c-7.365,0-15.957,3.546-19.64,10.093v-8.183H10.437v67.1Zm117.565-.523v-67.1H128.547v67.1ZM193.467-59c9,0,13.229,5.728,14.866,11.32l16.23-5.455c-2.864-11.32-13.229-22.64-31.505-22.64-19.5,0-34.778,14.866-34.778,35.6,0,20.594,15.548,35.6,35.324,35.6,17.867,0,28.368-11.456,31.369-22.64l-15.957-5.319A15.358,15.358,0,0,1,193.6-21.216c-9.274,0-17.185-6.819-17.185-18.958S184.193-59,193.467-59Zm83.059-15a41.3,41.3,0,0,0-4.228-.273c-5.728,0-15,1.637-19.094,10.5v-9.956H235.61v67.1H253.75V-37.31c0-14.457,8.047-18.958,17.321-18.958a27.312,27.312,0,0,1,5.455.546ZM316.078-21.08c-8.865,0-17.048-6.547-17.048-19.094,0-12.684,8.183-19.094,17.048-19.094s17.048,6.41,17.048,19.094S324.943-21.08,316.078-21.08Zm0-54.691c-20.049,0-35.188,14.866-35.188,35.6,0,20.594,15.139,35.6,35.188,35.6s35.188-15,35.188-35.6C351.266-60.9,336.127-75.771,316.078-75.771Z" data-name="Caminho 21" id="Caminho_21" transform="translate(-13659.999 -5017.669)"/>
    </g>
</svg>
