<svg class="tick" xmlns="http://www.w3.org/2000/svg" xmlns:xlink="http://www.w3.org/1999/xlink" width="15" height="10" viewBox="0 0 11.316 6.108">
  <defs>
    <linearGradient id="gray1" x1="0.5" x2="0.5" y2="1.301" gradientUnits="objectBoundingBox">
      <stop offset="0" stop-color="#c6c6c6"/>
      <stop offset="0.428" stop-color="#b4b4b4"/>
      <stop offset="1" stop-color="#969696"/>
    </linearGradient>
    <linearGradient id="gray2" x1="0.5" x2="0.5" y2="1.301" gradientUnits="objectBoundingBox">
      <stop offset="0" stop-color="#cecece"/>
      <stop offset="0.428" stop-color="#c4c4c4"/>
      <stop offset="1" stop-color="#adadad"/>
    </linearGradient>
        <linearGradient id="blue1" x1="0.5" x2="0.5" y2="1.301" gradientUnits="objectBoundingBox">
      <stop offset="0" stop-color="#42a9d7"/>
      <stop offset="0.428" stop-color="#3d9fca"/>
      <stop offset="1" stop-color="#3499b1"/>
    </linearGradient>
    <linearGradient id="blue2" x1="0.5" x2="0.5" y2="1.301" gradientUnits="objectBoundingBox">
      <stop offset="0" stop-color="#92d1ed"/>
      <stop offset="0.428" stop-color="#8fcce6"/>
      <stop offset="1" stop-color="#669dbf"/>
    </linearGradient>
  </defs>
  <g data-name="Tick" transform="translate(-8.063 -48.506)">
    <path class="tick1" data-name="1" d="M16.147,48.7a.707.707,0,0,0-.977,0l-4.245,4.245L9.241,51.265a.686.686,0,0,0-.488-.2h0a.691.691,0,0,0-.487,1.179l2.173,2.169a.691.691,0,0,0,.977,0l4.733-4.733a.691.691,0,0,0,0-.977Z" transform="translate(3.029 0)" fill="url(#gray1)"/>
    <path class="tick2" data-name="2" d="M16.147,48.7a.707.707,0,0,0-.977,0l-4.245,4.245L9.241,51.265a.686.686,0,0,0-.488-.2h0a.691.691,0,0,0-.487,1.179l2.173,2.169a.691.691,0,0,0,.977,0l4.733-4.733a.691.691,0,0,0,0-.977Z" fill="url(#gray2)"/>
  </g>
</svg>
